PathFileType	4	(X/Y/Z)	Kaydara	
DataRate	CameraRate	NumFrames	NumMarkers	Units	OrigDataRate	OrigDataStartFrame	OrigNumFrames	
60.00	60.00	4	74	mm	60.00	1014	111	
Frame#	Time	Y_rasi			Y_rpsi			Y_lpsi			Y_fneck			Y_bneck			Y_fhead			Y_rhead			Y_rshld			Y_relbtop			Y_relbext			Y_relblow			Y_rwrext			Y_rwrtop			Y_rwrlow			Y_lshld			Y_lelbext			Y_lelblow			Y_lelbtop			Y_lwrext			Y_lwrtop			Y_lwrlow			Y_rtopleg			Y_ltopleg			Y_rkneefr			Y_rkneebk			Y_rkneeis			Y_lkneefr			Y_lknssbk			Y_lkneeis			Y_rankfr			Y_rankis			Y_rankbk			Y_lankfr			Y_lankbk			Y_lankis			Y_lhead			Y_lasi			D_rpsi			D_lpsi			D_fneck			D_bneck			D_fhead			D_rhead			D_lhead			D_rshld			D_relbtop			D_relbext			D_relblow			D_rwrext			D_rwrtop			D_rwrlow			D_lshld			D_lelbext			D_lelblow			D_lelbtop			D_lwrext			D_lwrtop			D_lwrlow			D_rtopleg			D_ltopleg			D_rkneefr			D_rkneebk			D_rkneeis			D_lkneefr			D_lknssbk			D_lkneeis			D_rankfr			D_rankis			D_rankbk			D_lankfr			D_lankbk			D_lankis			D_lasi			D_rasi			
		X1	Y1	Z1	X2	Y2	Z2	X3	Y3	Z3	X4	Y4	Z4	X5	Y5	Z5	X6	Y6	Z6	X7	Y7	Z7	X8	Y8	Z8	X9	Y9	Z9	X10	Y10	Z10	X11	Y11	Z11	X12	Y12	Z12	X13	Y13	Z13	X14	Y14	Z14	X15	Y15	Z15	X16	Y16	Z16	X17	Y17	Z17	X18	Y18	Z18	X19	Y19	Z19	X20	Y20	Z20	X21	Y21	Z21	X22	Y22	Z22	X23	Y23	Z23	X24	Y24	Z24	X25	Y25	Z25	X26	Y26	Z26	X27	Y27	Z27	X28	Y28	Z28	X29	Y29	Z29	X30	Y30	Z30	X31	Y31	Z31	X32	Y32	Z32	X33	Y33	Z33	X34	Y34	Z34	X35	Y35	Z35	X36	Y36	Z36	X37	Y37	Z37	X38	Y38	Z38	X39	Y39	Z39	X40	Y40	Z40	X41	Y41	Z41	X42	Y42	Z42	X43	Y43	Z43	X44	Y44	Z44	X45	Y45	Z45	X46	Y46	Z46	X47	Y47	Z47	X48	Y48	Z48	X49	Y49	Z49	X50	Y50	Z50	X51	Y51	Z51	X52	Y52	Z52	X53	Y53	Z53	X54	Y54	Z54	X55	Y55	Z55	X56	Y56	Z56	X57	Y57	Z57	X58	Y58	Z58	X59	Y59	Z59	X60	Y60	Z60	X61	Y61	Z61	X62	Y62	Z62	X63	Y63	Z63	X64	Y64	Z64	X65	Y65	Z65	X66	Y66	Z66	X67	Y67	Z67	X68	Y68	Z68	X69	Y69	Z69	X70	Y70	Z70	X71	Y71	Z71	X72	Y72	Z72	X73	Y73	Z73	X74	Y74	Z74	

14	16.883	-535.86281	1091.92780	-149.52511	-537.89539	1074.17358	-332.97615	-307.74761	1056.82503	-271.90733	-434.18941	1432.00165	-168.81033	-352.29668	1478.46176	-251.48088	-476.17428	1636.44531	-112.55164	-453.56766	1568.30505	-277.14460	-577.04250	1426.28510	-298.26263	-625.01034	1111.30478	-329.20582	-633.00331	1129.44351	-385.52246	-565.97218	1108.42590	-388.81981	-666.28441	849.78195	-334.03889	-696.87508	862.85591	-307.75805	-676.74965	873.47626	-268.95285	-214.27914	1369.23416	-126.67832	-160.15030	1058.93745	-195.25942	-214.36325	1050.95505	-218.70733	-200.10294	1063.40019	-149.44493	-221.37186	808.80020	-136.52903	-209.98446	816.22978	-94.23181	-251.42220	834.09721	-80.44144	-612.94952	917.24258	-288.09311	-272.26513	906.08200	-159.96749	-638.53619	411.64692	-273.90379	-617.35172	454.80614	-349.55326	-542.47688	417.61055	-265.41264	-327.14287	476.69743	-126.08237	-262.77216	493.15498	-219.65309	-383.42449	469.77993	-203.39882	-632.05563	141.84633	-328.65379	-560.44106	133.87956	-342.56618	-601.83010	137.35353	-396.19701	-273.48366	131.66357	-172.22750	-256.12272	128.09788	-239.67867	-329.94370	126.33526	-210.05251	-327.61681	1571.10428	-190.60509	-381.07918	1072.95700	-106.09818	-840.39642	1166.81572	631.47709	-998.64151	1186.41823	552.84466	-839.89334	1606.81061	502.98599	-904.74983	1651.62903	598.16875	-871.81236	1791.54999	374.23229	-824.97925	1805.50842	545.29072	-973.23174	1784.27765	517.06741	-712.66624	1561.12915	619.34853	-703.63426	1189.86816	604.21722	-643.77953	1200.10742	634.30187	-701.30898	1189.35532	688.89816	-638.57731	907.86995	572.39830	-619.36920	922.08710	536.47560	-655.34462	935.18532	506.54076	-1070.41298	1573.35373	486.04855	-1100.14832	1202.76855	422.78633	-1057.92847	1181.55235	484.67426	-1040.20630	1210.29762	403.31715	-1052.99637	957.00066	364.80343	-1047.39731	976.52885	324.05396	-1000.38353	980.53658	330.14744	-736.24611	1025.33829	603.50101	-1045.41512	1034.17068	432.24167	-787.40913	549.08760	502.83325	-783.03596	552.93945	615.35557	-894.05800	549.20616	553.44463	-965.71167	468.75080	352.42691	-1044.65569	518.53027	415.78892	-955.07416	495.57293	467.91000	-820.44022	187.15816	556.43364	-897.25426	188.63739	546.01414	-866.51291	179.16113	625.50247	-1045.37308	166.37281	412.45380	-1061.12396	163.93488	489.97684	-979.98138	162.92692	441.75999	-936.95114	1192.50526	404.19857	-749.34814	1176.70639	486.20892 
15	16.900	-535.91949	1091.98280	-149.92098	-537.65434	1074.12964	-333.37711	-307.56317	1056.76773	-271.99171	-434.52595	1431.64581	-169.05121	-352.67754	1478.67325	-251.34617	-477.36176	1635.62439	-111.83306	-454.29768	1568.28583	-276.77687	-577.13306	1426.19446	-298.68958	-624.91680	1111.34789	-330.34729	-632.93194	1129.56963	-386.58768	-565.91675	1108.39882	-389.85786	-667.00623	850.30998	-333.59974	-697.53868	863.60359	-307.53769	-677.25670	874.45534	-268.79061	-214.49579	1369.44977	-126.68401	-159.14831	1059.32175	-195.57909	-213.12540	1051.27388	-219.38009	-199.57611	1064.00688	-150.01847	-222.01281	809.98589	-134.18326	-211.42189	817.91733	-91.78500	-253.17106	836.20682	-79.22407	-612.87178	917.24739	-288.45057	-271.78064	906.20361	-160.28688	-638.61122	411.65638	-273.84792	-617.36061	454.79313	-349.51797	-542.87914	417.45491	-265.09087	-327.18281	476.73553	-125.94036	-262.79169	493.16753	-219.47580	-383.48186	469.81052	-203.24945	-631.97262	141.77182	-328.63617	-560.42503	133.87935	-342.53067	-601.81774	137.36311	-396.19820	-273.57765	131.67770	-172.15658	-256.14298	128.12781	-239.64939	-329.94843	126.33901	-210.03849	-328.38657	1571.14075	-190.11227	-381.08299	1073.05305	-106.34768	-840.59204	1166.96335	630.54100	-999.47113	1186.79352	552.88887	-841.14418	1607.27600	503.85830	-907.96227	1651.64139	597.55142	-867.58606	1791.49857	374.55055	-829.50401	1805.98358	547.93678	-976.08521	1783.35220	512.04922	-714.32053	1562.40479	618.06683	-703.32161	1190.74440	601.13403	-643.11996	1201.58302	630.70107	-700.43396	1190.71007	685.89043	-635.70778	907.80212	574.78920	-617.34737	921.30066	538.28060	-653.96912	933.13454	508.74062	-1071.82076	1574.72595	485.98358	-1100.80063	1204.22005	422.59415	-1058.56529	1182.87376	484.47250	-1040.55382	1211.37901	404.74739	-1054.19121	958.12195	365.92552	-1049.29375	977.28889	324.87782	-1002.10556	981.63780	330.17502	-736.35994	1025.49271	601.96278	-1047.48665	1034.74129	432.96577	-787.77222	549.09454	502.15279	-783.23685	553.24432	614.60522	-894.45435	549.33887	552.99301	-966.51688	468.87623	352.44507	-1045.36095	518.48042	415.94807	-955.68993	495.63587	467.84744	-820.56351	187.21018	556.19961	-897.35603	188.63806	545.88196	-866.52626	179.26117	625.31376	-1045.66216	166.29915	412.51183	-1061.36246	163.87968	490.02205	-980.23613	162.98326	441.62533	-938.52051	1192.68608	403.77502	-750.42122	1177.22961	484.52103 
16	16.917	-535.98316	1091.99181	-150.23294	-537.40101	1074.08646	-333.78716	-307.43124	1056.74583	-272.03232	-434.93370	1431.28571	-169.14463	-353.20499	1478.89557	-251.23302	-478.61732	1634.64066	-111.03163	-454.98005	1568.30292	-276.10630	-577.34581	1426.24008	-299.14700	-624.97845	1111.67953	-331.64562	-632.69115	1129.87488	-387.97600	-565.65205	1108.65341	-391.24710	-667.59781	851.15654	-333.10730	-698.17490	864.71970	-307.11109	-677.87094	875.80994	-268.46304	-214.57850	1369.72702	-126.81405	-158.20605	1059.79477	-196.11200	-212.02229	1051.68030	-220.16674	-198.85260	1064.94362	-150.67560	-222.93032	811.50154	-131.58505	-212.71809	819.95949	-89.39871	-254.79164	838.61206	-77.65461	-612.74220	917.23335	-288.84470	-271.83582	906.18332	-160.17857	-638.69579	411.65970	-273.89805	-617.35756	454.78233	-349.51317	-542.89032	417.46361	-265.08596	-327.26006	476.75625	-125.84757	-262.80735	493.19832	-219.35854	-383.51707	469.82128	-203.16883	-631.97975	141.73358	-328.66570	-560.47112	133.89379	-342.50237	-601.82728	137.34703	-396.19343	-273.56985	131.65545	-172.12406	-256.15513	128.13332	-239.61292	-329.94518	126.31996	-210.01999	-329.24278	1571.27579	-189.60388	-381.17043	1073.11035	-106.50737	-840.86311	1166.87027	629.75586	-1000.32547	1186.78062	552.76165	-842.19139	1607.73224	504.50336	-911.01913	1651.61301	596.96827	-864.34044	1791.30142	374.92188	-834.34616	1806.31805	549.43962	-978.70506	1782.39868	507.42878	-716.04698	1563.65723	616.81568	-702.56119	1191.51352	597.50622	-642.45865	1203.07091	626.91540	-699.55696	1191.91177	682.63046	-632.88525	908.39920	577.23900	-615.49847	920.69191	540.18890	-652.90237	931.19568	510.83191	-1073.17833	1576.56906	485.79399	-1101.32629	1206.11130	422.07466	-1059.68483	1184.79721	484.41460	-1040.98221	1213.05222	404.17099	-1055.41969	959.59152	366.79501	-1050.53711	978.55225	325.65834	-1003.48946	982.78183	330.69180	-736.63162	1025.66734	600.61420	-1048.67752	1034.86755	432.81281	-788.17734	549.12640	501.42139	-783.57147	553.23864	613.94379	-894.75914	549.27540	552.36370	-967.10938	469.00383	352.37122	-1045.97366	518.42304	415.94627	-956.46591	495.68573	467.70973	-820.67848	187.21245	555.99548	-897.51099	188.59150	545.73467	-866.63773	179.40720	625.12615	-1045.84488	166.26297	412.49153	-1061.59180	163.92483	489.99916	-980.47630	163.03555	441.52229	-940.09720	1192.88330	403.16132	-751.59485	1177.77687	483.10982 
17	16.933	-536.04664	1091.93855	-150.44600	-538.00148	1074.37912	-331.53179	-307.28548	1056.79291	-271.98446	-435.84076	1431.08414	-168.91808	-353.79635	1479.10217	-251.16194	-479.88682	1633.84232	-110.22433	-456.13773	1568.45016	-275.99062	-577.76886	1426.40991	-299.32465	-624.73423	1112.09396	-333.26069	-632.48421	1130.31395	-389.67175	-565.56313	1109.07463	-392.96722	-667.98508	852.29172	-332.52399	-698.34290	866.21254	-306.51785	-678.09280	877.58392	-268.00077	-214.90513	1370.13550	-126.81302	-157.28849	1060.35370	-196.72283	-210.96359	1052.05978	-220.96764	-198.39943	1065.69885	-151.40538	-223.79164	813.22205	-129.05046	-214.42225	822.35901	-86.58098	-255.34164	840.88020	-74.96351	-612.63733	917.26768	-289.16866	-271.88107	906.15623	-160.04982	-638.77094	411.68602	-273.94430	-617.34531	454.77890	-349.55448	-542.97073	417.46017	-265.00954	-327.35413	476.79684	-125.77987	-262.83113	493.24921	-219.25953	-383.49514	469.81213	-203.11985	-631.96159	141.74056	-328.65147	-560.48317	133.88603	-342.49561	-601.83739	137.33430	-396.15295	-273.59945	131.65719	-172.10630	-256.13619	128.15750	-239.59003	-329.95251	126.33543	-210.03784	-330.24498	1571.41724	-188.90171	-381.25473	1073.15018	-106.63598	-841.45958	1167.00668	628.90118	-1000.92583	1186.97311	552.23820	-843.15872	1608.27225	505.00904	-913.67355	1651.71127	596.55930	-862.67639	1790.66483	375.23540	-838.44177	1806.81793	550.47783	-980.96962	1781.43219	504.19495	-717.85500	1564.97864	615.83424	-702.39502	1192.60712	594.47605	-641.90208	1204.64203	622.94567	-698.23395	1193.71689	679.39339	-630.00244	908.87123	578.59257	-613.62843	920.45601	541.61133	-651.91063	929.58923	512.93781	-1074.20235	1578.75565	485.26085	-1101.93184	1208.38097	421.27296	-1061.32530	1187.37587	484.52751	-1041.30630	1214.95468	404.81998	-1056.45500	961.46317	367.74387	-1051.33804	980.19806	326.46133	-1004.18289	984.26216	331.78696	-737.36198	1025.75050	599.74483	-1049.54208	1034.84642	432.43324	-788.61313	549.14986	500.64770	-783.97774	553.42407	613.20595	-895.11757	549.14925	551.72985	-967.62970	469.06975	352.13970	-1046.50764	518.35995	415.76248	-956.72997	495.70763	467.45304	-820.78270	187.20985	555.81429	-897.66319	188.53590	545.59502	-866.60118	179.41261	624.88590	-1045.99449	166.23659	412.34478	-1061.75812	163.91151	489.89346	-980.61729	163.10181	441.35990	-941.61415	1193.15628	402.49702	-752.82784	1178.18962	481.97453 
